<svg width="18" height="23" viewBox="0 0 18 23" fill="none" xmlns="http://www.w3.org/2000/svg">
<path d="M10.4169 8.79211C10.4169 9.17871 10.7303 9.49211 11.1169 9.49211C11.5035 9.49211 11.8169 9.17871 11.8169 8.79211H10.4169ZM7.32911 0.699951V-4.88162e-05V0.699951ZM2.84129 8.79211C2.84129 9.17871 3.15469 9.49211 3.54129 9.49211C3.92789 9.49211 4.24129 9.17871 4.24129 8.79211H2.84129ZM14.6773 6.41628C14.6773 6.80288 14.9907 7.11628 15.3773 7.11628C15.7639 7.11628 16.0773 6.80288 16.0773 6.41628H14.6773ZM15.3773 4.50515H16.0773L16.0772 4.49587L15.3773 4.50515ZM11.3986 0.0684348C11.012 0.0684944 10.6986 0.381943 10.6987 0.768543C10.6988 1.15514 11.0122 1.46849 11.3988 1.46843L11.3986 0.0684348ZM6.15541 12.7349C6.15541 13.1215 6.46881 13.4349 6.8554 13.4349C7.242 13.4349 7.5554 13.1215 7.5554 12.7349H6.15541ZM6.8554 6.41613H7.5554C7.5554 6.02954 7.242 5.71614 6.8554 5.71614V6.41613ZM0.700195 6.41613V5.71614C0.313596 5.71614 0.000195324 6.02954 0.000195324 6.41613H0.700195ZM0.700195 21.576H0.000195324C0.000195324 21.9626 0.313596 22.276 0.700195 22.276L0.700195 21.576ZM9.15597 5.71614C8.76937 5.71614 8.45597 6.02954 8.45597 6.41613C8.45597 6.80273 8.76937 7.11613 9.15597 7.11613V5.71614ZM14.4317 21.576V22.276H14.7217L14.9267 22.071L14.4317 21.576ZM15.3787 20.6291L15.8737 20.1341L15.3787 19.6391L14.8837 20.1341L15.3787 20.6291ZM16.3256 21.576L15.8307 22.071L16.0357 22.276H16.3256V21.576ZM16.7991 21.576V22.276H17.4991V21.576H16.7991ZM16.7991 6.41613H17.4991V5.71614H16.7991V6.41613ZM7.32941 13.0535L7.82439 12.5585C7.69311 12.4272 7.51506 12.3535 7.32941 12.3535V13.0535ZM8.74984 14.4739H9.44984C9.44984 14.2882 9.37609 14.1102 9.24482 13.9789L8.74984 14.4739ZM8.74984 18.2617V18.9617C9.13644 18.9617 9.44984 18.6483 9.44984 18.2617H8.74984ZM4.96202 18.2617H4.26202C4.26202 18.6483 4.57542 18.9617 4.96202 18.9617V18.2617ZM4.96202 14.4739L4.46705 13.9789C4.33577 14.1102 4.26202 14.2882 4.26202 14.4739H4.96202ZM6.38246 13.0535V12.3535C6.19681 12.3535 6.01876 12.4272 5.88748 12.5585L6.38246 13.0535ZM2.59464 8.09221C2.20804 8.09221 1.89464 8.40561 1.89464 8.79221C1.89464 9.17881 2.20804 9.49221 2.59464 9.49221V8.09221ZM4.48855 9.49221C4.87515 9.49221 5.18855 9.17881 5.18855 8.79221C5.18855 8.40561 4.87515 8.09221 4.48855 8.09221V9.49221ZM10.1694 8.09221C9.78276 8.09221 9.46936 8.40561 9.46936 8.79221C9.46936 9.17881 9.78276 9.49221 10.1694 9.49221V8.09221ZM12.0633 9.49221C12.4499 9.49221 12.7633 9.17881 12.7633 8.79221C12.7633 8.40561 12.4499 8.09221 12.0633 8.09221V9.49221ZM11.8169 8.79211V4.48777H10.4169V8.79211H11.8169ZM11.8169 4.48777C11.8169 3.29753 11.3441 2.15603 10.5025 1.3144L9.51253 2.30435C10.0916 2.88343 10.4169 3.66883 10.4169 4.48777H11.8169ZM10.5025 1.3144C9.66085 0.472775 8.51935 -4.88162e-05 7.32911 -4.88162e-05V1.39995C8.14805 1.39995 8.93345 1.72527 9.51253 2.30435L10.5025 1.3144ZM7.32911 -4.88162e-05C6.13886 -4.88162e-05 4.99737 0.472774 4.15574 1.3144L5.14569 2.30435C5.72477 1.72527 6.51017 1.39995 7.32911 1.39995V-4.88162e-05ZM4.15574 1.3144C3.31411 2.15603 2.84129 3.29753 2.84129 4.48777H4.24129C4.24129 3.66883 4.56661 2.88343 5.14569 2.30435L4.15574 1.3144ZM2.84129 4.48777V8.79211H4.24129V4.48777H2.84129ZM16.0773 6.41628V4.50515H14.6773V6.41628H16.0773ZM16.0772 4.49587C16.0682 3.81541 15.9054 3.1458 15.6011 2.53713L14.3489 3.16323C14.5588 3.58311 14.6711 4.04503 14.6773 4.51443L16.0772 4.49587ZM15.6011 2.53713C15.2967 1.92845 14.8587 1.39648 14.3197 0.980991L13.465 2.08976C13.8368 2.37638 14.1389 2.74335 14.3489 3.16323L15.6011 2.53713ZM14.3197 0.980991C13.7808 0.565504 13.1549 0.277262 12.4888 0.137828L12.2019 1.50813C12.6614 1.60431 13.0932 1.80315 13.465 2.08976L14.3197 0.980991ZM12.4888 0.137828C12.3584 0.110539 12.2938 0.0945213 12.2473 0.0835156C12.1976 0.0717725 12.1063 0.0491809 11.9836 0.0516127C11.8338 0.0545808 11.8735 0.0683615 11.3986 0.0684348L11.3988 1.46843C11.8212 1.46837 12.0528 1.45052 12.0113 1.45134C11.9428 1.4527 11.8847 1.4364 11.9251 1.44595C11.9686 1.45624 12.0509 1.47651 12.2019 1.50813L12.4888 0.137828ZM7.5554 12.7349V6.41613H6.15541V12.7349H7.5554ZM6.8554 5.71614H0.700195V7.11613H6.8554V5.71614ZM0.000195324 6.41613V21.576H1.4002V6.41613H0.000195324ZM0.700195 22.276H13.9576V20.876H0.700195V22.276ZM14.6576 21.576V6.41613H13.2576V21.576H14.6576ZM13.9576 5.71614H9.15597V7.11613H13.9576V5.71614ZM13.9576 22.276H14.4317V20.876H13.9576V22.276ZM14.9267 22.071L15.8737 21.124L14.8837 20.1341L13.9367 21.0811L14.9267 22.071ZM14.8837 21.124L15.8307 22.071L16.8206 21.0811L15.8737 20.1341L14.8837 21.124ZM16.3256 22.276H16.7991V20.876H16.3256V22.276ZM17.4991 21.576V6.41613H16.0991V21.576H17.4991ZM16.7991 5.71614H13.9576V7.11613H16.7991V5.71614ZM6.83444 13.5484L8.25487 14.9689L9.24482 13.9789L7.82439 12.5585L6.83444 13.5484ZM8.04984 14.4739V18.2617H9.44984V14.4739H8.04984ZM8.74984 17.5617H4.96202V18.9617H8.74984V17.5617ZM5.66202 18.2617V14.4739H4.26202V18.2617H5.66202ZM5.457 14.9689L6.87743 13.5484L5.88748 12.5585L4.46705 13.9789L5.457 14.9689ZM6.38246 13.7535H7.32941V12.3535H6.38246V13.7535ZM2.59464 9.49221H4.48855V8.09221H2.59464V9.49221ZM10.1694 9.49221H12.0633V8.09221H10.1694V9.49221Z" fill="white"/>
</svg>
