<svg width="96" height="15" viewBox="0 0 96 15" fill="none" xmlns="http://www.w3.org/2000/svg">
<path d="M87.207 0.65625L85.4297 4.29297L81.4102 4.86719C80.6992 4.97656 80.4258 5.85156 80.9453 6.37109L83.8164 9.1875L83.1328 13.1523C83.0234 13.8633 83.7891 14.4102 84.418 14.082L88 12.1953L91.5547 14.082C92.1836 14.4102 92.9492 13.8633 92.8398 13.1523L92.1562 9.1875L95.0273 6.37109C95.5469 5.85156 95.2734 4.97656 94.5625 4.86719L90.5703 4.29297L88.7656 0.65625C88.4648 0.0273438 87.5352 0 87.207 0.65625Z" fill="#F2C94C"/>
<path d="M67.207 0.65625L65.4297 4.29297L61.4102 4.86719C60.6992 4.97656 60.4258 5.85156 60.9453 6.37109L63.8164 9.1875L63.1328 13.1523C63.0234 13.8633 63.7891 14.4102 64.418 14.082L68 12.1953L71.5547 14.082C72.1836 14.4102 72.9492 13.8633 72.8398 13.1523L72.1562 9.1875L75.0273 6.37109C75.5469 5.85156 75.2734 4.97656 74.5625 4.86719L70.5703 4.29297L68.7656 0.65625C68.4648 0.0273438 67.5352 0 67.207 0.65625Z" fill="#F2C94C"/>
<path d="M47.207 0.65625L45.4297 4.29297L41.4102 4.86719C40.6992 4.97656 40.4258 5.85156 40.9453 6.37109L43.8164 9.1875L43.1328 13.1523C43.0234 13.8633 43.7891 14.4102 44.418 14.082L48 12.1953L51.5547 14.082C52.1836 14.4102 52.9492 13.8633 52.8398 13.1523L52.1562 9.1875L55.0273 6.37109C55.5469 5.85156 55.2734 4.97656 54.5625 4.86719L50.5703 4.29297L48.7656 0.65625C48.4648 0.0273438 47.5352 0 47.207 0.65625Z" fill="#F2C94C"/>
<path d="M27.207 0.65625L25.4297 4.29297L21.4102 4.86719C20.6992 4.97656 20.4258 5.85156 20.9453 6.37109L23.8164 9.1875L23.1328 13.1523C23.0234 13.8633 23.7891 14.4102 24.418 14.082L28 12.1953L31.5547 14.082C32.1836 14.4102 32.9492 13.8633 32.8398 13.1523L32.1562 9.1875L35.0273 6.37109C35.5469 5.85156 35.2734 4.97656 34.5625 4.86719L30.5703 4.29297L28.7656 0.65625C28.4648 0.0273438 27.5352 0 27.207 0.65625Z" fill="#F2C94C"/>
<path d="M7.20703 0.65625L5.42969 4.29297L1.41016 4.86719C0.699219 4.97656 0.425781 5.85156 0.945312 6.37109L3.81641 9.1875L3.13281 13.1523C3.02344 13.8633 3.78906 14.4102 4.41797 14.082L8 12.1953L11.5547 14.082C12.1836 14.4102 12.9492 13.8633 12.8398 13.1523L12.1562 9.1875L15.0273 6.37109C15.5469 5.85156 15.2734 4.97656 14.5625 4.86719L10.5703 4.29297L8.76562 0.65625C8.46484 0.0273438 7.53516 0 7.20703 0.65625Z" fill="#FFCC00"/>
</svg>
