<svg width="16" height="16" viewBox="0 0 16 16" fill="none" xmlns="http://www.w3.org/2000/svg">
<path d="M7.75 0C3.46875 0 0 3.46875 0 7.75C0 12.0312 3.46875 15.5 7.75 15.5C12.0312 15.5 15.5 12.0312 15.5 7.75C15.5 3.46875 12.0312 0 7.75 0ZM7.75 14C4.28125 14 1.5 11.2188 1.5 7.75C1.5 4.3125 4.28125 1.5 7.75 1.5C11.1875 1.5 14 4.3125 14 7.75C14 11.2188 11.1875 14 7.75 14ZM9.65625 10.75C9.84375 10.875 10.0625 10.8438 10.1875 10.6562L10.7812 9.875C10.9062 9.6875 10.875 9.46875 10.6875 9.34375L8.625 7.8125V3.375C8.625 3.1875 8.4375 3 8.25 3H7.25C7.03125 3 6.875 3.1875 6.875 3.375V8.53125C6.875 8.625 6.90625 8.75 7 8.8125L9.65625 10.75Z" fill="white"/>
</svg>
