<svg width="11" height="15" viewBox="0 0 11 15" fill="none" xmlns="http://www.w3.org/2000/svg">
<path d="M8.97095 13.8825L10.1818 11.6048C10.3206 11.3667 10.2556 11.0491 10.0301 10.8635L7.71571 9.04239C7.50728 8.88645 7.23172 8.88768 7.01826 9.03065L5.46944 10.1419C3.92041 8.82611 2.82042 6.95504 2.44456 4.90269L4.18137 4.11701C4.41192 4.00364 4.55076 3.76561 4.51993 3.50714L4.09996 0.592248C4.05205 0.304177 3.80318 0.112389 3.53388 0.0902707L0.955874 2.36548e-06C0.680313 0.00122923 0.460601 0.167547 0.385538 0.447687C-1.21581 6.424 2.3155 12.5746 8.31516 14.1822C8.57196 14.251 8.83211 14.1205 8.97095 13.8825Z" fill="white"/>
</svg>
