<svg width="15" height="20" viewBox="0 0 15 20" fill="none" xmlns="http://www.w3.org/2000/svg">
<path d="M6.42436 18.7502C6.76052 19.2731 7.54489 19.2731 7.88105 18.7502C13.3343 10.9065 14.3428 10.0848 14.3428 7.17138C14.3428 3.21218 11.1306 0 7.17138 0C3.17483 0 0 3.21218 0 7.17138C0 10.0848 0.971124 10.9065 6.42436 18.7502ZM7.17138 10.1595C5.49059 10.1595 4.18331 8.85217 4.18331 7.17138C4.18331 5.52794 5.49059 4.1833 7.17138 4.1833C8.81482 4.1833 10.1595 5.52794 10.1595 7.17138C10.1595 8.85217 8.81482 10.1595 7.17138 10.1595Z" fill="white"/>
</svg>
