<svg width="15" height="15" viewBox="0 0 15 15" fill="none" xmlns="http://www.w3.org/2000/svg">
<path d="M14.4996 10.9817V13.0893C14.5004 13.2849 14.4602 13.4786 14.3817 13.6578C14.3031 13.8371 14.1879 13.998 14.0435 14.1303C13.899 14.2626 13.7285 14.3633 13.5428 14.4259C13.3571 14.4886 13.1603 14.5119 12.965 14.4943C10.799 14.2594 8.7183 13.5207 6.89023 12.3376C5.18945 11.2589 3.74748 9.81984 2.66674 8.12243C1.4771 6.28969 0.736769 4.20306 0.505713 2.03156C0.488123 1.83729 0.511257 1.6415 0.573642 1.45664C0.636027 1.27178 0.736296 1.10191 0.868066 0.957846C0.999835 0.813781 1.16022 0.698678 1.339 0.619863C1.51779 0.541049 1.71106 0.500252 1.90651 0.500068H4.01826C4.35987 0.496713 4.69105 0.617444 4.95007 0.83976C5.20909 1.06208 5.37827 1.37081 5.42609 1.70841C5.51522 2.38287 5.68052 3.04511 5.91883 3.68249C6.01354 3.93394 6.03403 4.20721 5.97789 4.46993C5.92175 4.73265 5.79132 4.9738 5.60207 5.16481L4.70809 6.05701C5.71016 7.81581 7.1693 9.27206 8.93159 10.2721L9.82556 9.37994C10.0169 9.19106 10.2586 9.06089 10.5218 9.00486C10.7851 8.94883 11.0589 8.96929 11.3108 9.06381C11.9495 9.30164 12.613 9.46662 13.2888 9.55557C13.6308 9.60371 13.9431 9.7756 14.1663 10.0386C14.3895 10.3015 14.5081 10.6372 14.4996 10.9817Z" fill="#6AAE55" stroke="#6AAE55" stroke-linecap="round" stroke-linejoin="round"/>
</svg>
